<svg width="588" height="477" viewBox="0 0 588 477" fill="none" xmlns="http://www.w3.org/2000/svg">
<path d="M119.178 178C105.996 187.157 105.868 206.805 100.678 223.415C95.4882 240.025 95.2607 260.923 92.1608 278.796C89.061 296.67 91.6774 319.03 87.895 337.003C80.2591 324.382 79.6761 305.415 75.069 291.602C70.4476 277.803 68.7129 256.394 64.8309 243.617C60.949 230.84 57.6643 211.944 43.9283 207.714C30.178 203.483 23.3384 225.687 18.6744 238.08C14.0104 250.474 10.9105 269.824 7.313 284.944C3.71546 300.063 3.65858 318.206 1.15594 335.583C-1.34669 352.96 27.1066 359.888 26.7511 339.842C26.3956 319.796 26.5947 303.186 31.1165 285.994C35.6383 268.816 39.1078 258.793 45.2364 243.305C48.1372 257.871 50.1848 275.403 52.659 289.841C55.1332 304.279 59.8399 318.661 62.6127 332.432C65.3855 346.188 73.32 357.261 78.2684 369.329C83.2168 381.396 108.272 374.383 110.177 363.508C112.082 352.633 104.006 333.738 106.38 321.386C108.755 309.035 106.779 290.551 109.253 277.419C111.727 264.287 113.732 258.055 113.49 243.305C113.248 228.554 119.007 213.52 114.912 200.715C123.159 197.719 118.239 184.914 119.178 178Z" fill="#0B0000" stroke="#0B0000"/>
<path d="M477.51 207.813C468.11 185.169 459.721 211.674 446.241 212.086C432.761 212.498 416.01 219.497 403.568 224.849C409.711 239.897 436.074 232.799 449.071 231.947C448.459 240.678 444.279 249.352 441.932 257.473C439.586 265.579 437.681 274.296 435.32 282.104C432.96 289.898 432.874 301.497 430.571 308.595C428.282 315.694 432.775 332.829 427.741 325.645C426.39 336.818 433.913 341.83 426.319 351.199C411.318 353.13 387.656 357.446 379.395 371.075C396.046 373.517 412.171 365.169 429.163 365.396C428.85 370.635 431.154 375.135 433.429 379.593C439.43 377.463 446.34 378.883 451.914 375.334C447.606 346.77 490.691 360.2 501.683 342.681C487.364 336.08 470.997 342.085 456.18 342.681C457.048 303.328 467.2 266.317 476.088 229.108C489.07 225.999 502.266 216.757 515.902 220.59C516.627 205.343 489.667 208.622 477.51 207.813Z" fill="#0B0000" stroke="#0B0000"/>
<path d="M222.98 257.501C231.185 241.715 224.416 210.979 201.651 223.429C202.504 229.435 200.499 234.773 200.229 240.465C207.595 235.468 204.253 250.715 200.115 255.968C195.963 261.207 181.161 257.289 174.634 260.341C178.914 267.638 186.322 271.783 194.541 271.698C190.759 287.13 193.19 307.531 190.275 322.806C187.36 338.082 195.679 361.435 206.912 347.934C218.131 334.419 208.633 318.902 214.463 304.365C220.293 289.827 216.269 278.91 222.98 264.6C229.251 264.032 235.593 263.734 241.466 261.76C236.389 258.836 228.54 260.639 222.98 257.501Z" fill="#0B0000" stroke="#0B0000"/>
<path d="M537.232 258.921C542.393 242.197 538.739 210.766 514.48 223.429C514.381 229.179 515.106 235.227 513.058 240.465C521.931 230.3 517.282 257.558 511.949 257.814C506.617 258.069 479.159 261.065 494.459 267.553C509.76 274.04 507.726 277.419 505.949 291.573C504.171 305.727 503.659 314.203 503.105 327.065C502.55 339.927 504.697 345.975 511.636 355.458C517.58 352.434 519.415 345.436 525.856 342.681C521.249 315.878 531.003 290.068 535.81 264.6C542.08 264.032 548.422 263.734 554.295 261.76C549.631 259.517 542.863 259.503 537.232 258.921Z" fill="#0B0000" stroke="#0B0000"/>
<path d="M261.373 314.288C280.441 309.632 279.929 292.979 287.082 278.91C294.22 264.827 289.84 238.464 270.971 248.628C252.088 258.779 252.543 267.411 243.997 284.163C235.437 300.901 236.93 316.687 241.508 334.121C246.073 351.569 265.411 354.11 278.109 342.355C290.807 330.6 296.069 317.894 299.766 301.511C288.248 313.294 283.499 335.356 265.639 339.842C261.643 332.02 260.506 323.473 261.373 314.288Z" fill="#0B0000" stroke="#0B0000"/>
<path d="M171.79 267.439C163.045 249.594 139.128 250.076 134.791 268.83C130.44 287.57 119.291 303.555 128.065 322.451C136.838 341.347 161.196 332.261 169.06 317.241C176.909 302.221 169.316 280.954 171.79 267.439Z" fill="#0B0000" stroke="#0B0000"/>
<path d="M279.858 263.18C274.099 268.646 269.649 276.511 268.483 284.475C273.189 278.399 278.934 271.258 279.858 263.18Z" fill="#F7FDFC" stroke="#0B0000"/>
<path d="M157.57 270.279C147.46 282.871 142.426 302.122 146.195 318.547C157.684 307.105 167.794 285.128 157.57 270.279Z" fill="#F7FDFC" stroke="#0B0000"/>
<path d="M235.778 346.94C206.969 349.226 179.767 368.037 154.841 381.126C129.9 394.201 105.997 409.235 82.5628 423.957C59.1148 438.679 37.6007 455.63 19.6414 476.13C80.5294 426.584 152.125 385.612 224.402 354.039C217.008 370.365 194.385 390.581 184.261 404.82C174.136 419.06 143.408 445.323 165.05 457.305C186.692 469.302 208.832 443.393 228.555 436.266C248.277 429.153 267.345 413.565 286.855 405.033C306.378 396.515 327.921 380.714 349.534 381.012C338.998 397.921 332.627 399.497 320.029 416.859C307.43 434.222 336.282 430.672 349.989 422.637C363.697 414.602 381.045 410.925 395.406 404.096C409.754 397.268 425.921 390.553 440.98 385.712C456.024 380.87 470.969 376.044 487.151 370.762C503.318 365.481 520.851 358.383 538.654 358.298C525.586 374.894 547.299 375.249 557.04 368.136C566.766 361.009 581.056 361.861 587 351.199C571.33 354.067 557.921 365.879 541.498 366.816C550.058 343.789 518.476 355.742 504.626 359.817C490.791 363.891 472.547 370.805 457.915 375.646C443.298 380.501 427.813 387.586 413.081 393.349C398.364 399.113 384.045 406.212 368.986 411.791C353.928 417.37 337.476 424.98 321.095 426.442C328.404 413.679 331.419 407.291 343.42 397.623C355.421 387.955 356.943 372.069 339.595 376.768C322.247 381.453 315.905 383.809 302.169 390.51C288.447 397.225 280.74 401.583 268.597 408.1C256.439 414.602 246.087 418.733 234.683 425.349C223.279 431.964 212.686 437.061 201.21 443.052C189.749 449.029 177.336 456.141 164.68 450.576C166.586 428.912 187.944 414.744 199.803 397.623C211.648 380.487 230.446 367.469 235.778 346.94Z" fill="#0B0000" stroke="#0B0000"/>
<g clip-path="url(#clip0_166_241)">
<path d="M448.55 19.6779C438.348 15.4498 426.836 19.8298 421.746 29.3788L416.933 27.3857L411.498 40.6075L412.616 41.0773L410.59 45.543L409.54 45.1318C399.499 40.9668 388.265 36.9882 379.198 45.9003C366.872 58.0432 373.078 93.0334 369.91 108.557C367.13 122.069 353.822 140.674 341.272 155.738C342.401 156.198 344.964 157.916 346.126 157.747C349.769 153.934 353.582 150.301 357.145 146.42C364.582 138.323 371.481 129.621 376.748 119.931C387.525 100.091 377.757 58.035 389.009 52.4692C393.704 50.1152 400.291 52.6525 406.12 55.393L354.782 168.473L359.462 170.411L312.175 284.877L305.346 340.224L310.095 342.191L306.846 354.757C306.217 356.711 306.716 358.726 307.952 359.238C309.162 359.732 310.944 358.658 311.864 356.829L318.473 345.664L323.215 347.624L357.517 303.657L404.812 189.188L404.905 189.227L409.677 191.203L458.76 60.1795L460.032 60.706L465.458 47.4876L460.655 45.4953C463.81 35.1416 458.757 23.9085 448.55 19.6779ZM321.797 342.229L310.169 337.413L315.87 291.219L350.426 305.532L321.797 342.229ZM407.278 185.401L360.612 166.073L364.244 157.45L410.854 176.748L407.278 185.401ZM457.615 54.897L417.297 38.2004L419.351 33.1988L459.661 49.8988L457.615 54.897Z" fill="black"/>
</g>
<defs>
<clipPath id="clip0_166_241">
<rect width="284.36" height="284.36" fill="white" transform="translate(194 108.841) rotate(-22.5047)"/>
</clipPath>
</defs>
</svg>
